<?xml version="1.0" encoding="UTF-8"?>
<svg id="b" data-name="Layer 1" xmlns="http://www.w3.org/2000/svg" width="994.63" height="326.223" viewBox="0 0 994.63 326.223">
  <g>
    <path d="M217.651,262.961c0-4.249,1.109-8.008,3.33-11.276,2.22-3.266,5.281-5.835,9.183-7.708,3.901-1.87,8.357-2.807,13.369-2.807,5.075,0,9.452.889,13.131,2.665,3.679,1.777,6.518,4.282,8.517,7.517,1.998,3.235,2.998,7.074,2.998,11.514h-15.32c0-2.474-.856-4.424-2.569-5.852-1.713-1.427-4.029-2.141-6.946-2.141-3.109,0-5.6.666-7.47,1.998-1.872,1.332-2.807,3.173-2.807,5.519,0,2.157.571,3.806,1.713,4.948s2.95,1.967,5.424,2.474l10.562,2.189c6.28,1.27,10.943,3.473,13.988,6.613s4.567,7.502,4.567,13.083c0,4.505-1.111,8.454-3.331,11.847-2.221,3.394-5.345,6.011-9.373,7.85-4.029,1.839-8.739,2.759-14.13,2.759-5.203,0-9.753-.889-13.655-2.664s-6.915-4.297-9.04-7.565c-2.126-3.267-3.188-7.089-3.188-11.466h15.32c0,2.538.919,4.505,2.76,5.9,1.839,1.396,4.472,2.093,7.897,2.093,3.488,0,6.248-.65,8.279-1.951,2.029-1.299,3.045-3.06,3.045-5.281,0-1.965-.492-3.488-1.475-4.567-.984-1.078-2.649-1.839-4.996-2.284l-10.752-2.188c-6.28-1.268-11.023-3.678-14.226-7.232-3.204-3.552-4.805-8.214-4.805-13.988Z"/>
    <path d="M279.025,286.464v-43.961h15.415v42.915c0,4.441,1.173,7.835,3.521,10.182,2.346,2.348,5.676,3.521,9.991,3.521,4.377,0,7.755-1.205,10.134-3.616,2.379-2.41,3.568-5.771,3.568-10.086v-42.915h15.415v43.961c0,5.583-1.189,10.436-3.568,14.559-2.379,4.125-5.757,7.327-10.134,9.611s-9.516,3.426-15.415,3.426c-5.837,0-10.928-1.127-15.272-3.378-4.346-2.251-7.708-5.455-10.086-9.61-2.379-4.154-3.568-9.023-3.568-14.606Z"/>
    <path d="M366.472,312.917h-15.225v-70.415h15.225l34.446,51.955h-4.758v-51.955h15.225v70.415h-15.225l-34.446-51.859h4.758v51.859Z"/>
    <path d="M453.634,312.917h-27.595v-70.415h26.643c6.914,0,12.989,1.491,18.222,4.472,5.234,2.982,9.34,7.137,12.323,12.465,2.981,5.329,4.472,11.482,4.472,18.46,0,6.851-1.443,12.91-4.33,18.175-2.887,5.266-6.884,9.389-11.989,12.37-5.107,2.982-11.023,4.472-17.747,4.472ZM441.454,249.544v56.522l-7.327-7.422h17.984c4.059,0,7.532-.824,10.419-2.474,2.886-1.649,5.091-4.028,6.613-7.137,1.522-3.107,2.284-6.818,2.284-11.133,0-4.439-.809-8.231-2.426-11.371s-3.934-5.55-6.946-7.231c-3.014-1.68-6.646-2.522-10.896-2.522h-17.033l7.327-7.231Z"/>
    <path d="M494.549,262.961c0-4.249,1.109-8.008,3.33-11.276,2.22-3.266,5.281-5.835,9.183-7.708,3.901-1.87,8.357-2.807,13.369-2.807,5.075,0,9.452.889,13.131,2.665,3.679,1.777,6.518,4.282,8.517,7.517,1.998,3.235,2.998,7.074,2.998,11.514h-15.32c0-2.474-.856-4.424-2.569-5.852-1.713-1.427-4.029-2.141-6.946-2.141-3.109,0-5.6.666-7.47,1.998-1.872,1.332-2.807,3.173-2.807,5.519,0,2.157.571,3.806,1.713,4.948s2.95,1.967,5.424,2.474l10.562,2.189c6.28,1.27,10.943,3.473,13.988,6.613s4.567,7.502,4.567,13.083c0,4.505-1.111,8.454-3.331,11.847-2.221,3.394-5.345,6.011-9.373,7.85-4.029,1.839-8.739,2.759-14.13,2.759-5.203,0-9.753-.889-13.655-2.664s-6.915-4.297-9.04-7.565c-2.126-3.267-3.188-7.089-3.188-11.466h15.32c0,2.538.919,4.505,2.76,5.9,1.839,1.396,4.472,2.093,7.897,2.093,3.488,0,6.248-.65,8.279-1.951,2.029-1.299,3.045-3.06,3.045-5.281,0-1.965-.492-3.488-1.475-4.567-.984-1.078-2.649-1.839-4.996-2.284l-10.752-2.188c-6.28-1.268-11.023-3.678-14.226-7.232-3.204-3.552-4.805-8.214-4.805-13.988Z"/>
    <path d="M574.955,312.917l-26.358-70.415h16.462l13.321,35.588c.824,2.157,1.585,4.41,2.284,6.756.698,2.348,1.428,5.043,2.189,8.088.888-3.362,1.696-6.152,2.426-8.374.729-2.22,1.475-4.377,2.236-6.471l13.131-35.588h16.081l-25.882,70.415h-15.891Z"/>
    <path d="M623.674,312.917h-16.081l25.121-70.415h15.034l25.026,70.415h-16.367l-4.948-14.844h-22.742l-5.043,14.844ZM638.233,270.097l-5.043,15.035h13.893l-5.043-15.035c-.381-1.204-.761-2.441-1.142-3.711-.38-1.268-.635-2.315-.761-3.14-.128.825-.366,1.855-.714,3.092-.349,1.237-.746,2.491-1.189,3.759Z"/>
    <path d="M696.372,242.503v70.415h-15.415v-70.415h15.415ZM683.716,312.917v-14.273h40.441v14.273h-40.441Z"/>
    <path d="M749.278,242.503v70.415h-15.415v-70.415h15.415ZM736.622,312.917v-14.273h40.441v14.273h-40.441Z"/>
  </g>
  <g>
    <path d="M42.252,129.856c6.591-4.537,8.125-14.755,15.379-16.13,5.803-1.1,8.013,4.023,11.683,6.339,2.824,1.78,6.307,1.854,7.972,6.828,1.594,4.761-2.032,7.772-2.151,12.6-.113,4.609,2.796,10.873,2.136,18.265-.674,7.544-7.479,22.239-7.796,28.662-.426,8.634,7.848,10.789,13.803,3.865,6.615-7.692,2.851-24.031,9.693-35.138,4.745-7.746,14.374-9.651,17.436-15.434,2.995-5.655-2.321-12.101,2.597-21.337,5.224-9.812,17.999-13.636,21.668-5.327,1.966,4.453-3.306,10.382-2.562,15.08.638,4.028,4.493,7.293,4.548,13.272.062,6.703-4.077,12.418-3.442,25.781.485,10.202,12.066,14.056,16.504,3.599,3.843-9.054-.056-15.621,2.847-22.662,2.16-5.24,7.566-8.243,9.982-16.592,2.615-9.038-2.042-22.607,3.915-31.001,5.573-7.853,16.111-10.235,22.258-5.56,5.224,3.973,8.019,11.064,4.394,16.56-3.899,5.912-8.591,10.872-11.7,16.881-3.549,6.861,1.433,15.858-1.356,21.911-2.266,4.92-10.104,5.782-12.242,12.493-1.827,5.737.364,14.199-4.226,18.708-4.129,4.055-10.005,6.06-13.412,9.363-4.544,4.407-5.008,15.208-14.276,16.713-7.877,1.279-13.283-5.383-14.558-12.979-1.201-7.149,2.391-13.032.685-23.313-1.298-7.821-9.608-8.043-14.579-3.05-7.493,7.267-5.493,20.031-11.192,29.801-2.773,4.64-7.79,7.314-10.332,11.785-2.771,4.876-2.765,16.22-12.937,18.81-8.132,2.071-16.252-2.602-16.996-9.828-.79-7.674,1.725-17.731.556-26.439-.93-6.926-6.326-10.817-6.839-17.353-.745-9.482,6.683-22.154,8.536-29.364,1.803-7.013-4.393-6.076-6.544-3.118-2.152,2.956-9.057,11.098-15.76,11.675-6.965.599-19.376-9.461-7.029-18.684,6.465-5.018,10.717-3.779,13.335-5.681Z"/>
    <path d="M217.771,52.08c8.943-7.207,13.062-18.183,22.538-18.939,7.483-.597,8.794,4.588,11.924,8.092,2.79,3.124,7.685,4.499,7.834,10.596.176,7.218-9.375,10.8-12.718,19.295-2.893,7.35,2.927,16.111-.442,23.74-2.953,6.689-13.56,21.085-6.197,26.197,7.905,5.488,15.054-7.185,23.684-13.43,8.798-6.366,22.824-.807,19.856,11.75-2.967,12.558-9.903,15.293-9.805,23.91.062,5.444,2.613,7.264,2.816,11.79.213,4.751-3.65,16.042,1.117,16.506,5.728.558,9.192-8.657,16.415-9.94,8.149-1.447,11.736,9.668,7.79,15.919-2.697,4.326-6.69,4.449-9.755,7.003-3.066,2.554-4.584,6.988-8.382,8.514-4.27,1.715-8.974-.082-14.006.916-4.351.862-8.186,5.144-13.217,6.16-6.864,1.386-14.244-7.333-6.783-14.76,4.461-4.591,9.419-4.895,10.319-12.041.784-6.219-3.455-14.913-3.303-20.154.159-5.466,9.718-17.676,4.919-19.868-4.508-2.058-7.489,9.397-14.337,10.393-5.669.824-10.977-5.398-16.142-2.064-8.321,5.296,1.275,13.311-.911,21.089-1.522,5.416-8.205,9.45-6.132,14.645,2.338,5.859,15.652-.641,15.8,11.376.137,11.117-15.174,12.013-22.998,16.672-7.639,4.549-12.507,14.418-23.42,16.553-12.497,2.444-20.157-12.518-9.144-21.835,6.775-5.75,14.599-3.974,19.455-8.571,3.752-3.552,8.147-14.091,6.697-29.637-.651-6.984-6.519-15.003-2.214-25.294,4.427-10.581,7.36-8.946,11.923-19.944,3.581-8.631-.873-15.889.646-23.574,1.56-7.893,9.161-10.414,11.829-22.105,2.507-10.988-6.124-10.033-11.288-5.1-5.163,4.933-9.118,17.48-19.864,18.829-10.746,1.348-20.096-12.518-7.401-23.042,6.114-5.117,16.934-4.841,22.897-9.647Z"/>
    <path d="M362.098,86.097c6.461-6.724.351-19.782,12.03-22.662,9.249-2.281,9.413,4.936,17.054,6.438,6.426,1.263,12.351-6.451,21.016-3.336,6.212,2.233,7.215,9.984,4.666,14.346-2.969,5.08-8.395,10.301-8.889,17.094-.461,6.345,3.775,10.089,1.838,16.706-2.743,9.376-16.503,13.616-17.587,21.587-1.24,9.115,5.842,18.14,14.105,18.448,9.438.352,12.273-7.97,20.452-12.728,6.998-4.071,16.621,1.614,12.662,11.435-4.036,10.013-13.45,9.914-20.015,17.36-7.211,8.178-10.819,24.345-23.92,22.484-9.815-1.394-11.256-14.91-7.545-26.184,3.487-10.592-11.103-13.05-15.263-3.074-3.767,9.032-4.86,22.964-16.212,24.32-8.338.996-13.152-7.073-18.113-7.881-4.737-.772-15.38,1.809-20.922.205-17.6-5.19-13.701-31.615.541-35.267,7.48-1.918,11.574,1.393,17.525-2.209,5.498-3.329,2.613-14.485,11.775-17.37,8.941-2.815,14.55,1.823,24.088.838,22.419-2.314,26.422-44.582,18.052-46.493-8.14-1.858-16.541,30.228-34.655,34.288-16.686,3.74-27.395-10.238-14.829-19.254,6.07-4.039,16.376-3.091,22.145-9.093ZM327.358,161.943c-.069,2.277,1.565,4.859,7.951,5.101,14.197.538,26.067-7.17,27.532-14.046,1.316-6.176-1.519-9.036-5.787-9.185-5.206-.182-7.357,8.382-16.116,12.165-6.228,2.689-13.445,1.412-13.58,5.966Z"/>
    <path d="M498.72,53.495c-.989,9.279-9.334,16.771-5.9,20.617,5.639,6.109,16.214-4.477,24.025-3.307,13.169,1.971,2.922,22.62-11.866,24.845-8.731,1.313-20.925-1.536-22.012,11.8-.7,8.585,4.631,15.393,4.201,24.901-.45,9.957-16.209,23.675-10.281,27.022,9.248,5.133,22.678-18.231,34.106-19.062,11.428-.832,11.457,14.148,1.497,23.345-8.521,7.868-12.05,4.687-18.834,8.777-5.624,3.391-12.808,18.528-26.764,16.726-8.135-1.05-12.518-6.874-12.135-13.858.482-8.793,6.049-15.107,6.462-21.86.344-5.633-3.319-12.004-2.684-19.442.751-8.802,9.026-18.993,10.175-27.558.637-4.741-4.236-9.235-8.1-8.501-6.517,1.238-9.349,7.347-18.999,6.712-7.955-.523-11.968-11.526,3.507-16.621,7.254-2.423,6.197-7.382,12.992-9.762,6.072-2.128,10.028.988,14.149-2.906,5.577-5.266,1.319-14.973,1.497-23.123.336-15.395,27.228-20.012,24.961,1.255Z"/>
    <path d="M564.224,8.693c30.496,6.448,9.663,68.623-14.189,58.785-9.98-4.08,1.672-18.321-3.138-25.675-3.608-5.515-16.011-5.336-17.191-13.673-1.948-13.771,18.283-22.87,34.518-19.437Z"/>
    <path d="M626.58,71.155c13.976-.182,12.379,13.367,20.497,18.024,8.205,4.706,14.808-1.734,22.809,2.496,13.424,6.905,8.068,24.898-3.726,24.03-5.777-.425-7.112-5.512-11.214-5.793-3.62-.248-8.893,2.58-13.231,2.307-9.4-.592.883-17.907-10.777-18.581-5.103-.295-7.655,1.84-7.902,6.364-.729,13.347,9.84,19.115,24.802,25.78,14.962,6.663,22.723,20.924,21.755,33.574-.623,8.132-3.207,15.597-10.069,17.649-5.255,1.571-9.116-1.093-13.349,2.476-3.999,3.371-8.507,15.528-21.29,14.79-14.876-.859-10.94-18.16-30.628-19.019-14.767-.644-17.022-9.746-16.827-15.179.293-8.149,7.011-16.302,15.328-15.95,15.445.655,7.636,20.269,18.232,20.807,4.475.228,6.91-5.545,13.283-5.184,7.316.414,7.388,6.994,16.216,5.742,4.06-.649,7.534-6.545,7.989-13.325.864-12.884-7.486-17.301-19.75-20.3-14.398-3.52-32.9-9.151-32.233-24.54.53-12.223,9.536-12.052,13.978-18.633,3.69-5.467,3.594-17.371,16.106-17.534Z"/>
    <path d="M797.697,96.049c9.145-3.984,13.998-15.503,24.622-9.718,7.375,4.015,3.046,15.049-8.218,25.392-5.36,4.98-4.599,17.482-9.575,23.618-6.34,7.817-15.833,13.246-17.674,20.299-2.414,9.249,5.457,13.225,14.433,5.553,7.853-6.713,8.856-15.494,16.004-21.351,4.385-3.502,8.563-3.866,13.245-10.692,3.989-5.815,3.528-14.142,8.558-21.412,6.608-9.552,23.994-7.505,18.576,9.476-2.851,8.933-11.462,16.793-15.274,24.235-3.813,7.442-2.888,18.734-5.691,24.801-3.128,6.773-10.685,14.924-12.992,19.598-3.446,6.982-.404,11.161,8.373,7.886,6.048-2.258,11.114-8.624,16.961-7.703,8.187,1.29,5.847,14.24-.376,18.978-6.482,4.935-13.415,4.766-19.486,7.99-6.918,3.673-12.327,10.062-21.988,8.698-11.043-1.559-11.581-13.266-7.582-20.037,3.997-6.771,22.264-26.166,14.738-30.66-4.656-2.718-11.05,6.949-19.279,11.531-11.272,6.276-23.774,5.853-28.683-2.724-6.873-12.008,6.386-15.444,9.258-26.944,2.818-11.283-1.173-8.133-.185-16.227.961-7.871,15.466-14.612,12.797-18.728-2.576-3.972-10.078,2.39-14.723,2.519-6.114.17-9.789-3.894-9.085-9.97,1.513-13.052,23.91-10.34,33.246-14.408Z"/>
    <path d="M860.88,135.84c7.125-12.4,32.804-6.514,39.026-24.954,5.126-15.19,11.353-18.947,19.155-17.532s11.252,7.407,8.799,16.36c-2.994,10.926,2.074,11.922,6.099,10.138,4.623-2.049,8.159-8.608,17.593-6.75,5.565,1.096,9.026,5.535,9.409,13.199.254,5.087-2.155,8.135-2.484,14.751-.477,9.589,6.969,18.077,4.81,28.503-2.021,9.761-6.737,8.785-12.402,15.033-5.663,6.248-10.14,18.963-20.377,16.963-10.237-2-9.868-15.708-15.688-17.99-4.267-1.673-9.125.849-10.388,7.757-1.67,9.137,1.3,15.221-1.067,22.837-4.06,13.059-21.954,17.451-18.159,26.871,2.978,7.392,10.385,3.135,16.413,4.369,5.131,1.051,8.043,5.565,6.8,11.422-1.106,5.21-10.469,13.014-24.448,8.153-17.278-6.009-22.039,2.653-34.516,2.121-6.827-.291-12.142-5.486-8.707-12.188,4.538-8.852,16.347-4.698,23.748-13.788,4.099-4.823,4.289-11.786,7.691-18.916,4.259-8.925,10.503-11.292,13.582-23.402,2.298-9.029-1.405-15.422.18-24.574,2.706-15.627,20.863-13.328,23.733-29.155,1.455-8.023-1.781-10.693-6.682-10.866-9.562-.336-22.076,15.055-32.116,15.42-9.291.337-14.051-6.858-10.005-13.784ZM930.689,130.531c-4.184-1.49-9.44,1.271-8.258,6.979,1.535,7.407,3.832,16.394,2.146,25.298-1.433,7.567,2.797,14.827,7.027,15.647,5.878,1.139,12.822-3.292,13.888-10.893,1.284-9.162-4.395-11.295-5.946-17.335-1.805-7.032.677-16.3-8.857-19.696Z"/>
  </g>
</svg>